<svg xmlns="http://www.w3.org/2000/svg" viewBox="0 0 24 24" id="GenerateLead"><g fill="none" fill-rule="evenodd" stroke="#0074ff" class="colorStroke4a4a4a svgStroke"><path d="m16.785 15.25 4.096 4.129a.989.989 0 0 1-.004 1.395l-.003.003a.976.976 0 0 1-1.38-.006l-4.098-4.132 1.389-1.39z" fill="#000000" class="color000000 svgShape"></path><circle cx="11.598" cy="11.134" r="6.368" transform="scale(-1 1) rotate(45 0 -16.865)" fill="#000000" class="color000000 svgShape"></circle><circle cx="11.295" cy="8.168" r="1.391" fill="#000000" class="color000000 svgShape"></circle><path stroke-linecap="round" stroke-linejoin="round" d="M15.23 14.482a3.754 3.754 0 1 0-7.509 0h7.508z" fill="#000000" class="color000000 svgShape"></path><g transform="translate(0 3)" fill="#000000" class="color000000 svgShape"><circle cx="3.818" cy="1.927" r="1.236" fill="#000000" class="color000000 svgShape"></circle><path stroke-linecap="round" stroke-linejoin="round" d="M5.601 4.624A3.337 3.337 0 0 0 .641 7.54H4.93" fill="#000000" class="color000000 svgShape"></path></g><g transform="matrix(-1 0 0 1 23 3)" fill="#000000" class="color000000 svgShape"><circle cx="3.818" cy="1.927" r="1.236" fill="#000000" class="color000000 svgShape"></circle><path stroke-linecap="round" stroke-linejoin="round" d="M5.601 4.624A3.337 3.337 0 0 0 .641 7.54H4.93" fill="#000000" class="color000000 svgShape"></path></g></g></svg>